<mxfile host="app.diagrams.net" modified="2023-06-08T07:55:49.657Z" agent="Mozilla/5.0 (Windows NT 10.0; Win64; x64; rv:109.0) Gecko/20100101 Firefox/113.0" version="21.3.7" etag="A6K1SK5SC1bXOL1KD8CR" type="github">
  <diagram name="Page-1" id="asIc0RifxA512hozee7m">
    <mxGraphModel>
      <root>
        <mxCell id="0" />
        <mxCell id="1" parent="0" />
      </root>
    </mxGraphModel>
  </diagram>
</mxfile>
